<svg xmlns="http://www.w3.org/2000/svg" width="760" height="120" viewBox="0 0 760 120" role="img" aria-label="Codex statusline preview">
  <title>Codex statusline preview</title>
  <rect width="760" height="120" fill="#0b1021"/>
  <g font-family="SFMono-Regular, Menlo, Monaco, Consolas, 'Liberation Mono', monospace" font-size="24" font-weight="700">
    <!-- Line 1: context and tokens -->
    <text x="14" y="30" fill="#a5ff00">❮</text>
    <text x="34" y="30" fill="#00ff00">■</text>
    <text x="50" y="30" fill="#5fff00">■</text>
    <text x="66" y="30" fill="#87ff00">■</text>
    <text x="82" y="30" fill="#afff00">■</text>
    <text x="98" y="30" fill="#ffaf00">|</text>
    <text x="114" y="30" fill="#4b5563">□</text>
    <text x="130" y="30" fill="#4b5563">□</text>
    <text x="146" y="30" fill="#4b5563">□</text>
    <text x="162" y="30" fill="#4b5563">□</text>
    <text x="178" y="30" fill="#4b5563">□</text>
    <text x="194" y="30" fill="#a5ff00">❯</text>
    <text x="226" y="30" fill="#a5ff00">127.6k - 49%</text>
    <text x="438" y="30" fill="#cbd5e1">⬇️</text>
    <text x="486" y="30" fill="#5fafff">8885.4k</text>
    <text x="612" y="30" fill="#cbd5e1">⬆️</text>
    <text x="660" y="30" fill="#ff87ff">33.9k</text>

    <!-- Line 2: model and location -->
    <text x="14" y="58" fill="#00ffff">GPT-5.5</text>
    <text x="122" y="58" fill="#585f6d">·</text>
    <text x="154" y="58" fill="#5fff00">medium</text>
    <text x="254" y="58" fill="#585f6d">∷</text>
    <text x="286" y="58" fill="#ff5faf">~/life-os</text>
    <text x="470" y="58" fill="#5fff00">🌿</text>
    <text x="524" y="58" fill="#5fafff">main</text>

    <!-- Line 3: 5h limit -->
    <text x="14" y="86" fill="#00cc00">●</text>
    <text x="62" y="86" fill="#bcbcbc">5h</text>
    <text x="132" y="86" fill="#5fff00">▮▮▮▮▮▮▮▮</text>
    <text x="260" y="86" fill="#4b5563">▯▯</text>
    <text x="328" y="86" fill="#a5ff00">88%</text>
    <text x="386" y="86" fill="#cbd5e1">⏱️</text>
    <text x="454" y="86" fill="#5fafaf">4h 50m 52s</text>

    <!-- Line 4: 7d limit -->
    <text x="14" y="112" fill="#ffd700">●</text>
    <text x="62" y="112" fill="#bcbcbc">7d</text>
    <text x="132" y="112" fill="#ffff00">▮▮▮▮▮▮</text>
    <text x="228" y="112" fill="#4b5563">▯▯▯▯</text>
    <text x="328" y="112" fill="#ffff00">59%</text>
    <text x="386" y="112" fill="#cbd5e1">⏱️</text>
    <text x="454" y="112" fill="#5fafaf">3d 17h 21m 40s</text>
  </g>
</svg>
